<svg width="513" height="525" viewBox="0 0 513 525" fill="none" xmlns="http://www.w3.org/2000/svg">
<circle opacity="0.9" cx="441" cy="508" r="262" fill="white" fill-opacity="0.19"/>
<circle cx="441" cy="508" r="104" fill="white" fill-opacity="0.26"/>
<path d="M51.3785 347.413C50.865 342.823 55.5131 339.399 59.745 341.249L139.094 375.944C143.326 377.795 143.968 383.532 140.249 386.272L70.5277 437.643C66.8092 440.382 61.5193 438.069 61.0058 433.479L51.3785 347.413Z" fill="white" fill-opacity="0.19"/>
<path d="M366.183 23.021C367.709 16.9809 376.291 16.9809 377.817 23.021L385.654 54.0367C386.571 57.6621 390.544 59.5754 393.949 58.0313L423.085 44.8208C428.759 42.2481 434.109 48.9576 430.339 53.9168L410.976 79.3823C408.713 82.3589 409.694 86.6582 413.025 88.358L441.519 102.9C447.068 105.733 445.158 114.099 438.93 114.243L406.948 114.982C403.21 115.069 400.46 118.516 401.208 122.18L407.604 153.525C408.849 159.629 401.118 163.353 397.122 158.573L376.603 134.029C374.205 131.16 369.795 131.16 367.397 134.029L346.878 158.573C342.883 163.353 335.151 159.629 336.396 153.525L342.792 122.18C343.54 118.516 340.79 115.069 337.052 114.982L305.07 114.243C298.842 114.099 296.932 105.733 302.481 102.9L330.975 88.358C334.306 86.6582 335.287 82.3589 333.024 79.3823L313.661 53.9168C309.891 48.9576 315.241 42.2481 320.915 44.8208L350.051 58.0313C353.456 59.5754 357.429 57.6621 358.346 54.0367L366.183 23.021Z" fill="white" fill-opacity="0.19"/>
</svg>
